<svg width="240" height="80" viewBox="0 0 240 80" fill="none" xmlns="http://www.w3.org/2000/svg"><path fill="#fff" d="M0 0h240v80H0z"/><path d="M67.177 27.72h-8.964c.244-1.408 1.11-2.193 2.87-3.087l1.653-.84c2.952-1.515 4.522-3.222 4.522-6.011 0-1.76-.677-3.142-2.031-4.143-1.327-1.002-2.952-1.49-4.82-1.49-1.49 0-2.844.38-4.09 1.165-1.218.758-2.139 1.733-2.707 2.951l2.6 2.6c1.001-2.03 2.464-3.033 4.386-3.033 1.625 0 2.627.84 2.627 2.004 0 .975-.487 1.787-2.356 2.735l-1.056.515c-2.302 1.164-3.9 2.491-4.82 4.008-.921 1.49-1.381 3.412-1.381 5.714v.623h13.567v-3.71zm-1.198 7.995H51.136L43.714 48.57h14.843l7.422 12.855 7.42-12.855-7.42-12.854z" fill="#FF492C"/><path d="M44.993 57.14c-9.45 0-17.139-7.69-17.139-17.14s7.689-17.138 17.14-17.138l5.867-12.28a30.126 30.126 0 0 0-5.868-.575C28.428 10.007 15 23.436 15 40.001c0 16.564 13.428 29.993 29.993 29.993a29.856 29.856 0 0 0 17.664-5.754l-6.498-11.254a17.06 17.06 0 0 1-11.166 4.153zM116.073 24.577h-9.169l-2.823-8.718-2.839 8.718-9.17-.016 7.416 5.394-2.84 8.718 7.416-5.394 7.416 5.394-2.823-8.718 7.416-5.378zM143 24.577h-9.169l-2.823-8.718-2.839 8.718-9.169-.016 7.415 5.394-2.839 8.718 7.416-5.394 7.415 5.394-2.822-8.718L143 24.577zM169.927 24.577h-9.169l-2.822-8.718-2.84 8.718-9.169-.016 7.416 5.394-2.839 8.718 7.415-5.394 7.415 5.394-2.822-8.718 7.415-5.378zM196.855 24.577h-9.169l-2.823-8.718-2.839 8.718-9.169-.016 7.415 5.394-2.839 8.718 7.415-5.394 7.416 5.394-2.823-8.718 7.416-5.378zM224 24.577h-9.169l-2.823-8.718-2.839 8.718-9.169-.016 7.415 5.394-2.839 8.718 7.416-5.394 7.415 5.394-2.822-8.718L224 24.577z" fill="#FF492C"/><path fill="#FFB7AB" d="M212 16h12v23h-12z" style="mix-blend-mode:lighten"/><path d="M93.716 60.068h5.62V62h2.687v-1.932h1.392v-2.216h-1.392v-7.488h-3.54l-4.767 7.511v2.193zm5.676-2.216h-2.88v-.09l2.79-4.421h.09v4.511zm6.973 4.313c.778 0 1.466-.66 1.477-1.477a1.5 1.5 0 0 0-1.477-1.46c-.818 0-1.489.653-1.477 1.46a1.467 1.467 0 0 0 1.477 1.477zm3.148-2.097h5.619V62h2.688v-1.932h1.392v-2.216h-1.392v-7.488h-3.54l-4.767 7.511v2.193zm5.676-2.216h-2.881v-.09l2.79-4.421h.091v4.511z" fill="#000"/><path d="M129.169 57.185c-.213-1.108-1.099-1.816-2.633-1.816-1.577 0-2.651.776-2.647 1.986-.004.955.584 1.585 1.841 1.845l1.117.235c.6.132.882.375.882.745 0 .448-.486.785-1.219.785-.707 0-1.168-.307-1.3-.895l-1.504.145c.192 1.201 1.202 1.913 2.808 1.913 1.637 0 2.791-.848 2.796-2.088-.005-.934-.605-1.505-1.841-1.773l-1.117-.239c-.664-.149-.929-.379-.924-.758-.005-.443.485-.75 1.129-.75.711 0 1.086.388 1.206.818l1.406-.153zm4.268 4.943c1.645 0 2.693-.976 2.804-2.365h-1.475c-.132.703-.639 1.108-1.316 1.108-.963 0-1.586-.806-1.586-2.144 0-1.32.635-2.113 1.586-2.113.741 0 1.197.477 1.316 1.108h1.475c-.107-1.42-1.215-2.353-2.813-2.353-1.917 0-3.128 1.385-3.128 3.384 0 1.981 1.181 3.375 3.137 3.375zm6.926 0c1.917 0 3.136-1.351 3.136-3.375 0-2.029-1.219-3.384-3.136-3.384-1.918 0-3.137 1.355-3.137 3.384 0 2.024 1.219 3.375 3.137 3.375zm.008-1.236c-1.061 0-1.581-.946-1.581-2.143 0-1.198.52-2.157 1.581-2.157 1.044 0 1.564.96 1.564 2.157s-.52 2.143-1.564 2.143zM144.808 62h1.543v-3.848c0-.831.626-1.419 1.474-1.419.26 0 .584.047.716.09v-1.42a3.688 3.688 0 0 0-.554-.042c-.75 0-1.376.426-1.615 1.184h-.068v-1.09h-1.496V62zm7.386.128c1.526 0 2.574-.746 2.847-1.884l-1.441-.162c-.208.554-.72.844-1.384.844-.998 0-1.658-.656-1.671-1.777h4.56v-.473c0-2.297-1.381-3.307-2.992-3.307-1.875 0-3.098 1.377-3.098 3.397 0 2.054 1.206 3.362 3.179 3.362zm-1.645-4.019c.047-.835.665-1.538 1.586-1.538.886 0 1.483.648 1.491 1.538h-3.077zm7.672 2.698h-1.364l-.03.477c-.072 1.155-.375 2.331-.498 2.847h1.04c.204-.537.677-1.782.796-2.855l.056-.47zm7.52 1.312c1.888 0 3.239-1.04 3.243-2.459-.004-1.09-.81-2.002-1.824-2.173v-.06c.882-.196 1.496-.988 1.5-1.934-.004-1.342-1.24-2.34-2.919-2.34-1.692 0-2.927.993-2.923 2.34-.004.946.601 1.738 1.5 1.935v.06a2.198 2.198 0 0 0-1.824 2.172c-.004 1.42 1.342 2.46 3.247 2.46zm0-1.218c-.989 0-1.628-.546-1.619-1.351-.009-.835.677-1.428 1.619-1.428.929 0 1.611.597 1.619 1.428-.008.805-.643 1.35-1.619 1.35zm0-3.976c-.81 0-1.389-.524-1.381-1.283-.008-.75.554-1.253 1.381-1.253.814 0 1.372.503 1.381 1.253-.009.763-.584 1.283-1.381 1.283zM173.379 62h1.542v-3.848c0-.831.627-1.419 1.475-1.419.26 0 .583.047.716.09v-1.42a3.709 3.709 0 0 0-.554-.042c-.75 0-1.377.426-1.616 1.184h-.068v-1.09h-1.495V62zm7.386.128c1.525 0 2.573-.746 2.846-1.884l-1.44-.162c-.209.554-.72.844-1.385.844-.997 0-1.658-.656-1.671-1.777h4.56v-.473c0-2.297-1.381-3.307-2.991-3.307-1.875 0-3.098 1.377-3.098 3.397 0 2.054 1.206 3.362 3.179 3.362zm-1.645-4.019c.047-.835.664-1.538 1.585-1.538.886 0 1.483.648 1.491 1.538h-3.076zm11.519-2.654h-1.64l-1.509 4.862h-.068l-1.504-4.862h-1.645L186.604 62h1.704l2.331-6.545zM191.707 62h1.542v-6.545h-1.542V62zm.775-7.474c.49 0 .891-.375.891-.836 0-.464-.401-.84-.891-.84-.494 0-.895.376-.895.84 0 .46.401.836.895.836zm5.251 7.602c1.526 0 2.574-.746 2.847-1.884l-1.44-.162c-.209.554-.721.844-1.385.844-.998 0-1.658-.656-1.671-1.777h4.56v-.473c0-2.297-1.381-3.307-2.992-3.307-1.875 0-3.098 1.377-3.098 3.397 0 2.054 1.206 3.362 3.179 3.362zm-1.645-4.019c.047-.835.665-1.538 1.586-1.538.886 0 1.483.648 1.491 1.538h-3.077zM203.265 62h1.61l1.228-4.423h.089L207.419 62h1.607l1.854-6.545h-1.577l-1.134 4.576h-.064l-1.176-4.576h-1.555l-1.176 4.602h-.06l-1.15-4.602h-1.573l1.85 6.545zm13.865-4.815c-.213-1.108-1.099-1.816-2.634-1.816-1.576 0-2.65.776-2.646 1.986-.004.955.584 1.585 1.841 1.845l1.117.235c.6.132.882.375.882.745 0 .448-.486.785-1.219.785-.708 0-1.168-.307-1.3-.895l-1.504.145c.192 1.201 1.202 1.913 2.808 1.913 1.637 0 2.791-.848 2.796-2.088-.005-.934-.606-1.505-1.841-1.773l-1.117-.239c-.665-.149-.929-.379-.925-.758-.004-.443.486-.75 1.13-.75.711 0 1.086.388 1.206.818l1.406-.153z" fill="#6E7D87"/></svg>