<svg width="240" height="80" viewBox="0 0 240 80" fill="none" xmlns="http://www.w3.org/2000/svg"><path fill="#fff" d="M0 0h240v80H0z"/><g clip-path="url(#a)"><path d="M76.499 33.287H52.314l-7.446-22.996-7.489 22.996-24.185-.044 19.56 14.23-7.49 22.995 19.56-14.23 19.56 14.23-7.445-22.996L76.5 33.287z" fill="#00B67A"/><path d="M58.613 52.67l-1.674-5.198-12.07 8.767 13.744-3.569z" fill="#005128"/></g><path d="M117 24.577h-9.169l-2.823-8.718-2.839 8.718L93 24.561l7.415 5.394-2.839 8.718 7.416-5.394 7.415 5.394-2.822-8.718L117 24.577zM143.927 24.577h-9.169l-2.822-8.718-2.84 8.718-9.169-.016 7.416 5.394-2.839 8.718 7.415-5.394 7.415 5.394-2.822-8.718 7.415-5.378zM170.855 24.577h-9.169l-2.823-8.718-2.839 8.718-9.169-.016 7.415 5.394-2.839 8.718 7.415-5.394 7.416 5.394-2.823-8.718 7.416-5.378zM197.782 24.577h-9.169l-2.823-8.718-2.839 8.718-9.169-.016 7.415 5.394-2.839 8.718 7.416-5.394 7.415 5.394-2.822-8.718 7.415-5.378zM224.927 24.577h-9.169l-2.822-8.718-2.84 8.718-9.169-.016 7.416 5.394-2.839 8.718 7.415-5.394 7.415 5.394-2.822-8.718 7.415-5.378z" fill="#00B67A"/><path d="M93.716 60.068h5.62V62h2.687v-1.932h1.392v-2.216h-1.392v-7.488h-3.54l-4.767 7.511v2.193zm5.676-2.216h-2.88v-.09l2.79-4.421h.09v4.511zm6.973 4.313c.778 0 1.466-.66 1.477-1.477a1.5 1.5 0 0 0-1.477-1.46c-.818 0-1.489.653-1.477 1.46a1.467 1.467 0 0 0 1.477 1.477zm7.32-.006c2.721 0 4.699-1.415 4.699-3.307 0-1.443-1.165-2.613-2.614-2.84v-.092c1.261-.238 2.182-1.284 2.182-2.568 0-1.812-1.807-3.147-4.267-3.147-2.461 0-4.267 1.33-4.267 3.147 0 1.284.897 2.33 2.181 2.569v.09c-1.471.228-2.613 1.398-2.613 2.841 0 1.892 1.977 3.307 4.699 3.307zm0-1.994c-1.034 0-1.75-.648-1.75-1.54 0-.91.738-1.563 1.75-1.563 1.011 0 1.75.66 1.75 1.563 0 .898-.722 1.54-1.75 1.54zm0-5.085c-.887 0-1.523-.597-1.523-1.42 0-.82.631-1.393 1.523-1.393.892 0 1.522.58 1.522 1.392 0 .83-.642 1.42-1.522 1.42z" fill="#000"/><path d="M128.435 57.185c-.213-1.108-1.1-1.816-2.634-1.816-1.577 0-2.65.776-2.646 1.986-.004.955.584 1.585 1.841 1.845l1.116.235c.601.132.882.375.882.745 0 .448-.485.785-1.218.785-.708 0-1.168-.307-1.3-.895l-1.504.145c.191 1.201 1.201 1.913 2.808 1.913 1.636 0 2.791-.848 2.795-2.088-.004-.934-.605-1.505-1.841-1.773l-1.116-.239c-.665-.149-.929-.379-.925-.758-.004-.443.486-.75 1.129-.75.712 0 1.087.388 1.206.818l1.407-.153zm4.267 4.943c1.645 0 2.694-.976 2.804-2.365h-1.474c-.132.703-.639 1.108-1.317 1.108-.963 0-1.585-.806-1.585-2.144 0-1.32.635-2.113 1.585-2.113.742 0 1.198.477 1.317 1.108h1.474c-.106-1.42-1.214-2.353-2.812-2.353-1.918 0-3.128 1.385-3.128 3.384 0 1.981 1.18 3.375 3.136 3.375zm6.926 0c1.918 0 3.137-1.351 3.137-3.375 0-2.029-1.219-3.384-3.137-3.384-1.917 0-3.136 1.355-3.136 3.384 0 2.024 1.219 3.375 3.136 3.375zm.009-1.236c-1.061 0-1.581-.946-1.581-2.143 0-1.198.52-2.157 1.581-2.157 1.044 0 1.564.96 1.564 2.157s-.52 2.143-1.564 2.143zM144.074 62h1.542v-3.848c0-.831.627-1.419 1.475-1.419.26 0 .584.047.716.09v-1.42a3.709 3.709 0 0 0-.554-.042c-.75 0-1.377.426-1.615 1.184h-.068v-1.09h-1.496V62zm7.386.128c1.525 0 2.574-.746 2.846-1.884l-1.44-.162c-.209.554-.72.844-1.385.844-.997 0-1.657-.656-1.67-1.777h4.559v-.473c0-2.297-1.38-3.307-2.991-3.307-1.875 0-3.098 1.377-3.098 3.397 0 2.054 1.206 3.362 3.179 3.362zm-1.645-4.019c.047-.835.665-1.538 1.585-1.538.887 0 1.483.648 1.492 1.538h-3.077zm7.672 2.698h-1.364l-.03.477c-.072 1.155-.375 2.331-.499 2.847h1.04c.205-.537.678-1.782.797-2.855l.056-.47zm4.26-.426h4.163V62h1.509v-1.62h1.116v-1.299h-1.116v-5.808h-1.969l-3.703 5.85v1.258zm4.18-1.3h-2.561v-.068l2.493-3.95h.068v4.018zm3.97 2.919h5.983v-1.321h-3.802v-.06l1.505-1.53c1.696-1.627 2.165-2.42 2.165-3.404 0-1.462-1.189-2.532-2.945-2.532-1.73 0-2.957 1.074-2.957 2.732h1.504c0-.89.562-1.449 1.432-1.449.831 0 1.448.507 1.448 1.33 0 .728-.443 1.248-1.304 2.122l-3.029 2.97V62zm10.446 0h1.543v-3.848c0-.831.626-1.419 1.474-1.419.26 0 .584.047.716.09v-1.42a3.688 3.688 0 0 0-.554-.042c-.75 0-1.376.426-1.615 1.184h-.068v-1.09h-1.496V62zm7.386.128c1.526 0 2.574-.746 2.847-1.884l-1.44-.162c-.209.554-.721.844-1.385.844-.997 0-1.658-.656-1.671-1.777h4.56v-.473c0-2.297-1.381-3.307-2.992-3.307-1.875 0-3.098 1.377-3.098 3.397 0 2.054 1.206 3.362 3.179 3.362zm-1.644-4.019c.046-.835.664-1.538 1.585-1.538.886 0 1.483.648 1.491 1.538h-3.076zm11.519-2.654h-1.641l-1.508 4.862h-.068l-1.505-4.862h-1.644L193.569 62h1.704l2.331-6.545zM198.672 62h1.542v-6.545h-1.542V62zm.775-7.474c.49 0 .891-.375.891-.836 0-.464-.401-.84-.891-.84-.494 0-.895.376-.895.84 0 .46.401.836.895.836zm5.251 7.602c1.526 0 2.574-.746 2.847-1.884l-1.441-.162c-.208.554-.72.844-1.385.844-.997 0-1.657-.656-1.67-1.777h4.56v-.473c0-2.297-1.381-3.307-2.992-3.307-1.875 0-3.098 1.377-3.098 3.397 0 2.054 1.206 3.362 3.179 3.362zm-1.645-4.019c.047-.835.665-1.538 1.585-1.538.887 0 1.483.648 1.492 1.538h-3.077zM210.229 62h1.611l1.227-4.423h.09L214.384 62h1.607l1.853-6.545h-1.576l-1.134 4.576h-.064l-1.176-4.576h-1.555l-1.176 4.602h-.06l-1.151-4.602h-1.572L210.229 62zm13.866-4.815c-.213-1.108-1.1-1.816-2.634-1.816-1.576 0-2.65.776-2.646 1.986-.004.955.584 1.585 1.841 1.845l1.116.235c.601.132.882.375.882.745 0 .448-.485.785-1.218.785-.708 0-1.168-.307-1.3-.895l-1.504.145c.192 1.201 1.201 1.913 2.808 1.913 1.636 0 2.791-.848 2.795-2.088-.004-.934-.605-1.505-1.84-1.773l-1.117-.239c-.665-.149-.929-.379-.925-.758-.004-.443.486-.75 1.13-.75.711 0 1.086.388 1.206.818l1.406-.153z" fill="#6E7D87"/><defs><clipPath id="a"><path fill="#fff" transform="translate(13 8)" d="M0 0h64v64H0z"/></clipPath></defs></svg>